<?xml version="1.0" encoding="utf-8"?>
<!-- Generator: Adobe Illustrator 25.1.0, SVG Export Plug-In . SVG Version: 6.00 Build 0)  -->
<svg version="1.1" id="Laag_1" xmlns="http://www.w3.org/2000/svg" xmlns:xlink="http://www.w3.org/1999/xlink" x="0px" y="0px"
	 viewBox="0 0 947.3 947.3" style="enable-background:new 0 0 947.3 947.3;" xml:space="preserve">
<style type="text/css">
	.st0{fill:#F4BF18;}
	.st1{fill:#FFE1B0;}
	.st2{fill:#E69A7F;}
	.st3{fill:#824025;}
	.st4{opacity:0.32;fill:#FBAEDD;enable-background:new    ;}
	.st5{fill:#FFFFFF;}
	.st6{fill:#010202;}
	.st7{fill:#E5A03C;}
	.st8{fill:#DF9B2B;}
	.st9{fill:#F2C891;}
	.st10{fill:#F52B19;}
	.st11{fill:#F8D25A;}
	.st12{fill:#D80F05;}
	.st13{fill:#FBAEDD;}
</style>
<path class="st0" d="M774.7,946.9H138.7V342c0-169.3,137.2-306.5,306.5-306.5h23.1c169.3,0,306.5,137.2,306.5,306.5V946.9z"/>
<g>
	<ellipse class="st0" cx="460.8" cy="353.3" rx="252.2" ry="269.9"/>
	<path class="st0" d="M460.8,628.4c-141.9,0-257.4-123.4-257.4-275.2S318.9,78.1,460.8,78.1c141.9,0,257.4,123.4,257.4,275.2
		S602.8,628.4,460.8,628.4z M460.8,88.6c-136.2,0-247,118.7-247,264.7S324.6,618,460.8,618c136.2,0,247-118.7,247-264.7
		S597,88.6,460.8,88.6z"/>
</g>
<g>
	
		<ellipse transform="matrix(0.1602 -0.9871 0.9871 0.1602 137.9939 1051.2545)" class="st1" cx="686.8" cy="444.5" rx="51.8" ry="51.8"/>
	
		<ellipse transform="matrix(0.1602 -0.9871 0.9871 0.1602 137.994 1051.2545)" class="st2" cx="686.8" cy="444.5" rx="31.9" ry="31.9"/>
</g>
<g>
	<circle class="st1" cx="231.4" cy="444.5" r="51.8"/>
	<circle class="st2" cx="231.4" cy="444.5" r="31.9"/>
</g>
<g>
	<path class="st1" d="M468.6,779h-15.5c-123.8,0-224-100.3-224-224V361.2c0-83.3,67.5-150.7,150.7-150.7h162.1
		c83.3,0,150.7,67.5,150.7,150.7V555C692.6,678.7,592.3,779,468.6,779z"/>
	<path class="st1" d="M468.6,781.6h-15.5c-125,0-226.6-101.7-226.6-226.6V361.2c0-84.5,68.8-153.3,153.3-153.3h162.1
		c84.5,0,153.3,68.8,153.3,153.3v193.8C695.2,679.9,593.5,781.6,468.6,781.6z M379.8,213c-81.7,0-148.2,66.5-148.2,148.2v193.8
		c0,122.1,99.3,221.5,221.5,221.5h15.5c122.1,0,221.5-99.4,221.5-221.5V361.2c0-81.7-66.5-148.2-148.2-148.2H379.8z"/>
</g>
<path class="st3" d="M639,367.4h-89.4c-11.2,0-20.4-9.1-20.4-20.4l0,0c0-11.2,9.1-20.4,20.4-20.4H639c11.2,0,20.4,9.1,20.4,20.4l0,0
	C659.3,358.3,650.2,367.4,639,367.4z"/>
<path class="st3" d="M377.9,367.4h-104c-11.2,0-20.4-9.1-20.4-20.4l0,0c0-11.2,9.1-20.4,20.4-20.4h104c11.2,0,20.4,9.1,20.4,20.4
	l0,0C398.3,358.3,389.1,367.4,377.9,367.4z"/>
<circle class="st4" cx="619.1" cy="565.6" r="38.6"/>
<circle class="st4" cx="307.1" cy="560.1" r="38.6"/>
<ellipse transform="matrix(7.088904e-02 -0.9975 0.9975 7.088904e-02 -144.8382 775.0446)" class="st5" cx="343.6" cy="465.3" rx="49.8" ry="49.8"/>
<circle class="st5" cx="605.2" cy="465.6" r="49.8"/>
<g>
	<path d="M354.3,481.1"/>
	<g>
		<path d="M354.3,505.6c12.9,0,25.2-11.3,24.6-24.6c-0.6-13.3-10.8-24.6-24.6-24.6c-12.9,0-25.2,11.3-24.6,24.6
			C330.3,494.4,340.5,505.6,354.3,505.6L354.3,505.6z"/>
	</g>
</g>
<g>
	<path d="M619.1,480.9"/>
	<g>
		<path d="M619.1,505.4c12.9,0,25.2-11.3,24.6-24.6c-0.6-13.3-10.8-24.6-24.6-24.6c-12.9,0-25.2,11.3-24.6,24.6
			C595.1,494.1,605.3,505.4,619.1,505.4L619.1,505.4z"/>
	</g>
</g>
<g>
	<path d="M304.2,417.4c1.6,2.3,5,5.8,7.7,6.8"/>
	<g>
		<path d="M302,418.6c1.1,1.6,2.4,3.1,3.8,4.4c1.6,1.4,3.3,2.7,5.3,3.5c0.6,0.2,1.4,0.1,1.9-0.3c0.5-0.3,1-0.9,1.2-1.5
			c0.2-0.6,0.1-1.3-0.3-1.9c-0.4-0.6-0.8-0.9-1.5-1.2c-0.1-0.1-0.2-0.1-0.3-0.1c0.2,0.1,0.4,0.2,0.6,0.3c-0.9-0.4-1.8-0.9-2.6-1.6
			c0.2,0.1,0.3,0.3,0.5,0.4c-1.6-1.2-3-2.7-4.2-4.3c0.1,0.2,0.3,0.3,0.4,0.5c-0.2-0.3-0.4-0.5-0.6-0.8c-0.4-0.5-0.8-0.9-1.5-1.2
			c-0.6-0.2-1.4-0.1-1.9,0.3C301.9,415.9,301.2,417.5,302,418.6L302,418.6z"/>
	</g>
</g>
<g>
	<path d="M325.8,407c0.2,2.7,1.6,7.1,4,8.6"/>
	<g>
		<path d="M323.3,407c0.1,2.1,0.7,4,1.5,6c0.8,1.8,2,3.6,3.8,4.7c1.1,0.7,2.7,0.3,3.4-0.9c0.6-1.2,0.3-2.6-0.9-3.4
			c-0.2-0.2-0.6-0.5,0,0.1c-0.1-0.1-0.2-0.2-0.4-0.3c-0.1-0.1-0.2-0.2-0.3-0.3c-0.1-0.1-0.1-0.2-0.2-0.2c-0.3-0.3,0.1,0.2,0.2,0.2
			c-0.1-0.1-0.2-0.3-0.3-0.4c-0.1-0.2-0.2-0.3-0.3-0.5c-0.2-0.3-0.4-0.6-0.5-1c-0.1-0.1-0.3-0.7-0.1-0.3c0.2,0.4-0.1-0.2-0.1-0.3
			c-0.1-0.4-0.3-0.7-0.4-1.1c-0.2-0.7-0.4-1.4-0.5-2.1c0.1,0.2,0.1,0.4,0.1,0.6c-0.1-0.3-0.1-0.6-0.1-0.9c-0.1-1.3-1.1-2.5-2.5-2.5
			C324.5,404.6,323.2,405.6,323.3,407L323.3,407z"/>
	</g>
</g>
<g>
	<path d="M349.6,403.9c0.1,2.7-0.1,6.5-0.9,9"/>
	<g>
		<path d="M347.1,403.9c0.1,1.5,0.1,3-0.1,4.5c-0.1,0.4-0.1,0.8-0.1,1.2c0,0.1-0.1,0.4,0,0.1c0.1-0.4,0-0.1,0,0
			c-0.1,0.2-0.1,0.4-0.1,0.6c-0.1,0.7-0.3,1.4-0.5,2.1c-0.4,1.2,0.5,2.7,1.7,3c1.4,0.3,2.6-0.4,3-1.7c0.5-1.6,0.7-3.3,0.9-5
			c0.1-1.5,0.2-3.1,0.1-4.7c-0.1-1.3-1.1-2.5-2.5-2.5C348.3,401.5,347.1,402.5,347.1,403.9L347.1,403.9z"/>
	</g>
</g>
<g>
	<path d="M368.5,408.4c-0.1,3.3-1.9,5.6-3.2,8.6"/>
	<g>
		<path d="M366,408.4c0,0.3-0.1,0.7-0.1,1c0.1-0.2,0.1-0.4,0.1-0.6c-0.1,0.7-0.3,1.3-0.5,2c-0.1,0.2-0.1,0.3-0.2,0.5
			c-0.1,0.1-0.1,0.2-0.1,0.3c0.2-0.4,0.2-0.5,0.1-0.2c-0.1,0.3-0.3,0.6-0.4,0.8c-0.7,1.4-1.4,2.8-2,4.2c-0.2,0.5-0.1,1.4,0.3,1.9
			c0.3,0.5,0.9,1,1.5,1.2c0.6,0.2,1.3,0.1,1.9-0.3c0.6-0.4,0.9-0.8,1.2-1.5c-0.1,0.1-0.2,0.5-0.1,0.2c0.1-0.1,0.1-0.2,0.1-0.3
			c0.1-0.2,0.2-0.4,0.3-0.6c0.2-0.4,0.4-0.7,0.5-1.1c0.4-0.7,0.7-1.4,1-2c0.8-1.7,1.3-3.5,1.4-5.5c0.1-1.3-1.2-2.5-2.5-2.5
			C367.1,406,366.1,407,366,408.4L366,408.4z"/>
	</g>
</g>
<g>
	<path d="M385.6,416.5c0.5,4.9-3.2,7.7-6.8,9.9"/>
	<g>
		<path d="M383.2,416.5c0.1,0.6,0.1,1.1,0,1.6c-0.1,0.5,0.1-0.6,0-0.1c-0.1,0.2-0.1,0.3-0.1,0.4c-0.1,0.2-0.1,0.4-0.2,0.6
			c-0.1,0.1-0.1,0.3-0.2,0.4c0.2-0.7,0.1-0.3,0.1-0.1c-0.1,0.2-0.2,0.4-0.3,0.6c-0.2,0.2-0.3,0.5-0.4,0.7c-0.1,0.1-0.3,0.4-0.1,0.1
			c0.3-0.4-0.1,0.1-0.1,0.1c-0.3,0.4-0.7,0.7-1,1.1c-0.2,0.2-0.4,0.3-0.6,0.5c-0.1,0.1-0.2,0.2-0.3,0.3c-0.1,0.1-0.4,0.3-0.1,0.1
			c0.3-0.3,0,0-0.1,0.1c-0.1,0.1-0.2,0.2-0.3,0.3c-0.2,0.2-0.4,0.3-0.6,0.4c-0.4,0.3-0.9,0.6-1.3,0.8c-1.1,0.7-1.6,2.2-0.9,3.4
			c0.7,1.1,2.2,1.6,3.4,0.9c2-1.3,4-2.6,5.5-4.5c1.7-2.2,2.7-4.8,2.5-7.6c-0.1-0.7-0.2-1.3-0.7-1.7c-0.4-0.4-1.1-0.7-1.7-0.7
			C384.4,414.1,383,415.1,383.2,416.5L383.2,416.5z"/>
	</g>
</g>
<g>
	<path d="M564.4,419.2c1.6,2.3,5,5.8,7.7,6.8"/>
	<g>
		<path d="M562.3,420.4c1.1,1.6,2.4,3.1,3.8,4.4c1.6,1.4,3.3,2.7,5.3,3.5c0.6,0.2,1.4,0.1,1.9-0.3c0.5-0.3,1-0.9,1.2-1.5
			c0.2-0.6,0.1-1.3-0.3-1.9c-0.4-0.6-0.8-0.9-1.5-1.2c-0.1-0.1-0.2-0.1-0.3-0.1c0.2,0.1,0.4,0.2,0.6,0.3c-0.9-0.4-1.8-0.9-2.6-1.6
			c0.2,0.1,0.3,0.3,0.5,0.4c-1.6-1.2-3-2.7-4.2-4.3c0.1,0.2,0.3,0.3,0.4,0.5c-0.2-0.3-0.4-0.5-0.6-0.8c-0.4-0.5-0.8-0.9-1.5-1.2
			c-0.6-0.2-1.4-0.1-1.9,0.3C562.1,417.8,561.5,419.3,562.3,420.4L562.3,420.4z"/>
	</g>
</g>
<g>
	<path d="M586,408.8c0.2,2.7,1.6,7.1,4,8.6"/>
	<g>
		<path d="M583.5,408.8c0.1,2.1,0.7,4,1.5,6c0.8,1.8,2,3.6,3.8,4.7c1.1,0.7,2.7,0.3,3.4-0.9c0.6-1.2,0.3-2.6-0.9-3.4
			c-0.2-0.2-0.6-0.5,0,0.1c-0.1-0.1-0.2-0.2-0.4-0.3c-0.1-0.1-0.2-0.2-0.3-0.3c-0.1-0.1-0.1-0.2-0.2-0.2c-0.3-0.3,0.1,0.2,0.2,0.2
			c-0.1-0.1-0.2-0.3-0.3-0.4c-0.1-0.2-0.2-0.3-0.3-0.5c-0.2-0.3-0.4-0.6-0.5-1c-0.1-0.1-0.3-0.7-0.1-0.3c0.2,0.4-0.1-0.2-0.1-0.3
			c-0.1-0.4-0.3-0.7-0.4-1.1c-0.2-0.7-0.4-1.4-0.5-2.1c0.1,0.2,0.1,0.4,0.1,0.6c-0.1-0.3-0.1-0.6-0.1-0.9c-0.1-1.3-1.1-2.5-2.5-2.5
			C584.7,406.4,583.5,407.5,583.5,408.8L583.5,408.8z"/>
	</g>
</g>
<g>
	<path d="M609.8,405.7c0.1,2.7-0.1,6.5-0.9,9"/>
	<g>
		<path d="M607.4,405.7c0.1,1.5,0.1,3-0.1,4.5c-0.1,0.4-0.1,0.8-0.1,1.2c0,0.1-0.1,0.4,0,0.1c0.1-0.4,0-0.1,0,0
			c-0.1,0.2-0.1,0.4-0.1,0.6c-0.1,0.7-0.3,1.4-0.5,2.1c-0.4,1.2,0.5,2.7,1.7,3c1.4,0.3,2.6-0.4,3-1.7c0.5-1.6,0.7-3.3,0.9-5
			c0.1-1.5,0.2-3.1,0.1-4.7c-0.1-1.3-1.1-2.5-2.5-2.5C608.6,403.3,607.4,404.3,607.4,405.7L607.4,405.7z"/>
	</g>
</g>
<g>
	<path d="M628.7,410.2c-0.1,3.3-1.9,5.6-3.2,8.6"/>
	<g>
		<path d="M626.3,410.2c0,0.3-0.1,0.7-0.1,1c0.1-0.2,0.1-0.4,0.1-0.6c-0.1,0.7-0.3,1.3-0.5,2c-0.1,0.2-0.1,0.3-0.2,0.5
			c-0.1,0.1-0.1,0.2-0.1,0.3c0.2-0.4,0.2-0.5,0.1-0.2c-0.1,0.3-0.3,0.6-0.4,0.8c-0.7,1.4-1.4,2.8-2,4.2c-0.2,0.5-0.1,1.4,0.3,1.9
			c0.3,0.5,0.9,1,1.5,1.2c0.6,0.2,1.3,0.1,1.9-0.3c0.6-0.4,0.9-0.8,1.2-1.5c-0.1,0.1-0.2,0.5-0.1,0.2c0.1-0.1,0.1-0.2,0.1-0.3
			c0.1-0.2,0.2-0.4,0.3-0.6c0.2-0.4,0.4-0.7,0.5-1.1c0.4-0.7,0.7-1.4,1-2c0.8-1.7,1.3-3.5,1.4-5.5c0.1-1.3-1.2-2.5-2.5-2.5
			C627.4,407.8,626.3,408.8,626.3,410.2L626.3,410.2z"/>
	</g>
</g>
<g>
	<path d="M645.8,418.3c0.5,4.9-3.2,7.7-6.8,9.9"/>
	<g>
		<path d="M643.4,418.3c0.1,0.6,0.1,1.1,0,1.6c-0.1,0.5,0.1-0.6,0-0.1c-0.1,0.2-0.1,0.3-0.1,0.4c-0.1,0.2-0.1,0.4-0.2,0.6
			c-0.1,0.1-0.1,0.3-0.2,0.4c0.2-0.7,0.1-0.3,0.1-0.1c-0.1,0.2-0.2,0.4-0.3,0.6c-0.2,0.2-0.3,0.5-0.4,0.7c-0.1,0.1-0.3,0.4-0.1,0.1
			c0.3-0.4-0.1,0.1-0.1,0.1c-0.3,0.4-0.7,0.7-1,1.1c-0.2,0.2-0.4,0.3-0.6,0.5c-0.1,0.1-0.2,0.2-0.3,0.3c-0.1,0.1-0.4,0.3-0.1,0.1
			c0.3-0.3,0,0-0.1,0.1c-0.1,0.1-0.2,0.2-0.3,0.3c-0.2,0.2-0.4,0.3-0.6,0.4c-0.4,0.3-0.9,0.6-1.3,0.8c-1.1,0.7-1.6,2.2-0.9,3.4
			c0.7,1.1,2.2,1.6,3.4,0.9c2-1.3,4-2.6,5.5-4.5c1.7-2.2,2.7-4.8,2.5-7.6c-0.1-0.7-0.2-1.3-0.7-1.7c-0.4-0.4-1.1-0.7-1.7-0.7
			C644.6,415.9,643.3,416.9,643.4,418.3L643.4,418.3z"/>
	</g>
</g>
<g>
	<g>
		<path class="st5" d="M346.4,475.4c6.3,0,6.4-9.8,0-9.8C340.1,465.5,340.1,475.4,346.4,475.4L346.4,475.4z"/>
	</g>
</g>
<g>
	<g>
		<path class="st5" d="M360.7,500.2c12.7,0,12.7-19.7,0-19.7C348,480.5,348,500.2,360.7,500.2L360.7,500.2z"/>
	</g>
</g>
<g>
	<g>
		<path class="st5" d="M624.9,500.2c12.7,0,12.7-19.7,0-19.7C612.2,480.5,612.2,500.2,624.9,500.2L624.9,500.2z"/>
	</g>
</g>
<g>
	<g>
		<path class="st5" d="M611.2,474.1c6.3,0,6.4-9.8,0-9.8C604.9,464.3,604.9,474.1,611.2,474.1L611.2,474.1z"/>
	</g>
</g>
<path class="st6" d="M341.3,540.5h-17.4c-57.7,0-104.6-46.9-104.6-104.6v-42.2c0-27.7,22.6-50.3,50.3-50.3h126.1
	c27.7,0,50.3,22.6,50.3,50.3v42.2C445.9,493.6,398.9,540.5,341.3,540.5z M269.5,363.1c-16.9,0-30.6,13.7-30.6,30.6v42.2
	c0,46.8,38.1,84.9,84.9,84.9h17.4c46.8,0,84.9-38.1,85-84.9v-42.2c0-16.9-13.7-30.6-30.6-30.6H269.5z"/>
<path class="st6" d="M597.9,540.5h-17.4c-57.7,0-104.6-46.9-104.6-104.6v-35.2c0-31.6,25.7-57.3,57.3-57.3h112
	c31.6,0,57.3,25.7,57.3,57.3v35.2C702.5,493.6,655.5,540.5,597.9,540.5z M533.1,363.1c-20.8,0-37.6,16.9-37.6,37.6v35.2
	c0,46.8,38.1,84.9,84.9,84.9h17.4c46.8,0,84.9-38.1,84.9-84.9v-35.2c0-20.8-16.9-37.6-37.6-37.6H533.1z"/>
<path class="st6" d="M440.4,411l-8.8-11.8c11-8.3,37.6-18.9,59,0.4l-9.9,11C463,394.6,441.4,410.3,440.4,411z"/>
<path class="st0" d="M431.1,207.1c0,0-41.6,91.1-211.3,165.9C219.8,373,174.3,119,431.1,207.1z"/>
<path class="st0" d="M422.9,207.8c0,0,61,100.9,276.4,167.9C699.2,375.7,726.5,75.6,422.9,207.8z"/>
<path class="st7" d="M427.5,213.7c0,0,49.1,82.1,170.9,129.1c21.5,8.3,42.1,23.2,59,42.6c29.6,34.1,70.6,87.7,72.6,125.1
	c0,0,20-7.8-25.9-85c-30.2-50.9-75.1-91.8-124.4-113.7C546.2,296.9,496.9,268.4,427.5,213.7z"/>
<path class="st8" d="M427.5,213.7c0,0-36.5,106.7-157.3,195.4c-21.4,15.7-40.4,38.4-54.7,65.2c-24.9,47-58.3,119.4-53.1,161.9
	c0,0-22.8-2.9,11.2-103.1C196,467,235.9,407.8,284.2,368.6C316.9,342.2,364.1,295.6,427.5,213.7z"/>
<circle class="st9" cx="440.5" cy="575.2" r="9.6"/>
<circle class="st9" cx="485.6" cy="575.2" r="9.6"/>
<path class="st10" d="M533.3,659.4c0,28.7-30.8,51.9-68.9,51.9s-68.9-23.3-68.9-51.9"/>
<ellipse class="st10" cx="433.3" cy="661.2" rx="37.9" ry="24.3"/>
<ellipse class="st10" cx="497" cy="661.2" rx="36.2" ry="24.3"/>
<g>
	<rect x="395.5" y="756.6" class="st1" width="128.6" height="83.7"/>
	<path class="st1" d="M526.5,842.7H393.1v-88.5h133.5V842.7z M397.9,837.9h123.8V759H397.9V837.9z"/>
</g>
<g>
	<g>
		<path class="st11" d="M512.3,82.3c8.8,1.8,17.4,3.9,25.9,6.2c-4.3-1.2,0.9,0.3,1.9,0.6c2.4,0.7,4.7,1.5,7,2.3
			c4.1,1.4,8.1,2.9,12,4.5c1.7,0.7,3.4,1.4,5.1,2.2c1.2,0.5,2.3,1,3.4,1.5c1.8,0.9,2.2,1.1,1.1,0.5c-1.2-0.6-0.8-0.4,1.1,0.5
			c1.1,0.6,2.2,1.2,3.3,1.7c1.6,0.8,3.2,1.7,4.8,2.6c7.4,4.1,14.4,8.6,21.1,13.1c3.4,2.3,6.7,4.7,9.9,7c4.5,3.4-2.5-2,1.8,1.4
			c1.5,1.2,2.9,2.3,4.3,3.5c2.5,2.2,4.8,4.3,7,6.6c1.3,1.4,2.6,2.7,3.9,4.1c0.2,0.3,3.2,3.7,1,1.1c8.7,10.7,16.1,21.6,25.3,32.1
			c5.6,6.4,20.6,9,28.2,5.8c9.1-3.7,9.5-10.6,3.6-17.4c-0.6-0.7-1.2-1.4-1.8-2.1c1.1,1.4,1.1,1.3-0.1-0.1c-1.2-1.4-2.3-2.9-3.4-4.3
			c-1.9-2.5-3.8-5-5.7-7.6c-4.3-5.7-8.7-11.4-13.4-17c-9.8-11.4-23-21.6-37.3-31.2c-14.6-9.9-31.1-19.1-49-26.3
			c-17.5-7-36.6-12.1-55.6-16c-10.4-2.2-21.6,1.5-22.5,8.1C493.9,72.6,501,79.9,512.3,82.3L512.3,82.3z"/>
	</g>
</g>
<path class="st12" d="M527.6,674.2H401.1c-1.9,0-3.5-1.6-3.5-3.5v-0.1c0-1.9,1.6-3.5,3.5-3.5h126.4c1.9,0,3.5,1.6,3.5,3.5v0.1
	C531.1,672.7,529.5,674.2,527.6,674.2z"/>
<path class="st13" d="M649.5,946.9H284V917c0-48.9,39.6-88.5,88.5-88.5H561c48.9,0,88.5,39.6,88.5,88.5L649.5,946.9L649.5,946.9z"/>
</svg>
